<?xml version="1.0" encoding="utf-8"?>
<!-- Generator: Adobe Illustrator 25.4.1, SVG Export Plug-In . SVG Version: 6.00 Build 0)  -->
<svg version="1.1" id="Layer_1" xmlns="http://www.w3.org/2000/svg" xmlns:xlink="http://www.w3.org/1999/xlink" x="0px" y="0px"
	 viewBox="0 0 419.53 595.28" style="enable-background:new 0 0 419.53 595.28;" xml:space="preserve">
<style type="text/css">
	.st0{fill:#F5EB26;}
</style>
<g>
	<path class="st0" d="M108.73,115.24c0,19.59-15.89,35.47-35.49,35.47c-19.58,0-35.44-15.88-35.44-35.47
		c0-19.59,15.86-35.47,35.44-35.47C92.85,79.78,108.73,95.66,108.73,115.24"/>
	<path class="st0" d="M108.73,206.44c0,19.59-15.89,35.47-35.49,35.47c-19.58,0-35.44-15.88-35.44-35.47
		c0-19.59,15.86-35.46,35.44-35.46C92.85,170.97,108.73,186.85,108.73,206.44"/>
	<path class="st0" d="M108.73,297.64c0,19.6-15.89,35.47-35.49,35.47c-19.58,0-35.44-15.87-35.44-35.47
		c0-19.58,15.86-35.46,35.44-35.46C92.85,262.18,108.73,278.05,108.73,297.64"/>
	<path class="st0" d="M108.73,388.85c0,19.59-15.89,35.47-35.49,35.47c-19.58,0-35.44-15.88-35.44-35.47
		c0-19.6,15.86-35.46,35.44-35.46C92.85,353.38,108.73,369.25,108.73,388.85"/>
	<path class="st0" d="M108.73,480.04c0,19.58-15.89,35.46-35.49,35.46c-19.58,0-35.44-15.88-35.44-35.46
		c0-19.6,15.86-35.46,35.44-35.46C92.85,444.58,108.73,460.44,108.73,480.04"/>
	<path class="st0" d="M163.87,79.78c19.58,0,35.46,15.88,35.46,35.47c0,19.58-15.89,35.45-35.46,35.45
		c-19.6,0-35.48-15.87-35.48-35.45C128.39,95.66,144.27,79.78,163.87,79.78"/>
	<path class="st0" d="M255.06,79.78c19.58,0,35.46,15.88,35.46,35.47c0,19.58-15.89,35.45-35.46,35.45
		c-19.6,0-35.46-15.87-35.46-35.45C219.6,95.66,235.46,79.78,255.06,79.78"/>
	<path class="st0" d="M346.25,79.78c19.6,0,35.47,15.88,35.47,35.47c0,19.58-15.87,35.45-35.47,35.45
		c-19.57,0-35.46-15.87-35.46-35.45C310.8,95.66,326.68,79.78,346.25,79.78"/>
	<path class="st0" d="M163.87,262.18c19.58,0,35.46,15.88,35.46,35.46c0,19.59-15.89,35.45-35.46,35.45
		c-19.6,0-35.48-15.86-35.48-35.45C128.39,278.05,144.27,262.18,163.87,262.18"/>
	<path class="st0" d="M255.06,262.18c19.58,0,35.46,15.88,35.46,35.46c0,19.59-15.89,35.45-35.46,35.45
		c-19.6,0-35.46-15.86-35.46-35.45C219.6,278.05,235.46,262.18,255.06,262.18"/>
</g>
</svg>
