<svg xmlns="http://www.w3.org/2000/svg"  viewBox="0 0 1419.681 1418.456"><g transform="translate(-110.525 741.709)"><path fill="#fff" d="M770.661-741.083c-130.618,11.358-238.925,48.272-344.392,117.84-75.044,49.489-154.145,129.4-202.214,204.445-60.441,94.515-96.543,194.709-109.727,305.248-5.071,40.767-5.071,121.9,0,162.258q24.643,204.141,151.914,363.661c20.079,25.15,68.96,75.653,93.5,96.138,107.7,90.662,231.42,145.221,372.382,164.286,39.145,5.273,137.514,5.273,176.456,0,192.073-26.164,356.156-119.665,473.59-270.159,78.289-100.194,127.372-220.468,144.207-352.911,5.071-39.55,5.071-122.5.2-163.272-17.037-137.514-66.729-255.962-153.334-365.08-21.7-27.381-80.115-85.388-108.713-107.9-106.685-84.374-220.265-132.24-356.967-150.7C884.445-740.474,792.363-742.908,770.661-741.083ZM910.609-721c128.792,18.051,242.17,66.526,343.784,146.641,29.409,23.325,83.563,77.073,105.873,104.859,83.766,105.265,132.443,219.657,150.089,352.911,4.259,33.263,4.868,126.967,1.014,160.23-16.631,138.325-70.582,264.683-158.4,370.151-17.037,20.485-58.007,61.861-80.318,80.926C1165.151,587,1034.33,643.18,892.355,658.189c-55.37,5.882-137.311,3.245-189.639-5.882-122.1-21.5-232.84-73.016-328.978-152.725C348.385,478.488,299.5,428.8,279.02,403.038,196.268,298.585,148.4,185.613,130.554,51.75c-4.462-33.466-5.273-127.17-1.217-159.216,20.485-161.447,84.171-296.324,193.087-408.484C439.655-636.832,592.583-709.037,764.576-724.857,786.684-726.885,888.1-724.248,910.609-721Z"/><path fill="#fff" d="M452.731-709.653c-.608,9.33-1.42,35.9-1.623,59.427l-.609,42.593,7.707.608,7.5.609v-22.311c0-24.136,1.42-26.975,9.33-18.254,2.028,2.434,10.952,10.75,19.674,18.66l15.82,14.2,5.476-5.476,5.476-5.476-20.079-18.863L481.126-662.8l15.212-8.721c27.989-16.023,28.8-11.764-6.693-33.871-17.037-10.547-32.046-19.674-33.263-20.282C454.759-726.285,453.542-721.011,452.731-709.653Zm35.7,22.716c-.2,1.014-4.868,3.854-10.344,6.49l-10.344,4.665v-24.541l10.344,5.882C483.763-691.2,488.428-687.748,488.428-686.937Z" transform="translate(349.57 16.437)"/><path fill="#fff" d="M370.767-712.743c3.854,16.834,25.353,113.175,25.353,113.986,0,1.42,12.778-1.014,14.6-2.637.811-.608-1.217-12.981-4.462-27.178-3.448-14.4-6.085-27.381-6.085-29.206,0-2.637,1.825-3.042,11.764-1.826,6.287.811,16.834,2.028,23.325,2.637l11.764,1.217-.608-7.91-.609-7.91L429.586-674c-8.924-1.217-20.485-2.84-25.556-3.448-9.127-1.42-9.33-1.623-11.358-10.547-1.217-4.868-1.623-9.33-.811-9.735.609-.406,11.967.811,24.947,2.434,13.183,1.623,24.339,2.637,24.947,2.231.406-.609,1.217-4.057,1.42-7.91l.608-6.9-33.466-4.462C367.725-718.219,369.348-718.219,370.767-712.743Z" transform="translate(267.045 25.611)"/><path fill="#fff" d="M569.513-690.557c-22.919,9.735-41.984,17.848-42.39,18.254-1.825,1.825,50.706,77.884,53.748,77.884,4.057,0,15.009-6.288,15.009-8.721,0-.811-8.316-14.4-18.254-30.018-10.141-15.617-17.848-29.206-17.443-30.018.608-.811,14.4-6.9,30.626-13.589,16.429-6.49,30.221-12.981,30.626-14.2,1.42-3.245-5.071-17.037-7.91-17.037C612.309-707.8,592.432-700.09,569.513-690.557Z" transform="translate(428.309 34.66)"/><path fill="#fff" d="M303.679-686.755,298-683.713l27.381,54.559c15.009,30.22,27.99,54.762,28.6,54.762,2.231,0,12.981-6.288,12.981-7.707-.2-.811-3.245-7.3-6.9-14.6l-6.9-13.183,12.169-23.933c6.49-13.386,11.764-24.339,11.358-24.542s-11.967-2.231-25.961-4.462l-25.353-3.854L319.3-678.236c-3.245-6.49-6.9-11.764-8.113-11.764A30.987,30.987,0,0,0,303.679-686.755Zm51.111,41.376c0,2.434-8.721,16.226-10.344,16.226-.608,0-3.042-4.056-5.476-9.127l-4.462-9.127h10.141C350.328-647.407,354.79-646.393,354.79-645.379Z" transform="translate(192.766 53.168)"/><path fill="#fff" d="M648.79-663.921c0,10.953-.609,23.933-1.217,29l-1.217,9.127-27.178,14.806c-15.009,7.91-27.178,15.82-27.178,17.24s1.825,4.665,3.854,7.3l3.854,4.868,21.5-10.75c11.966-5.679,22.108-10.547,22.919-10.547.608,0,.608,11.358-.2,25.353l-1.217,25.353H660.96V-561.9c0-5.476.608-19.674,1.42-31.437l1.217-21.7,26.164-13.183,25.961-13.386-3.245-6.49c-1.826-3.651-3.651-6.693-3.854-7.1-.406-.406-9.735,4.057-21.093,9.533-11.155,5.679-20.891,10.344-21.5,10.344-.811,0-.609-10.952.2-24.339L667.653-684H648.79Z" transform="translate(495.064 59.337)"/><path fill="#fff" d="M696.925-660.136c-256.773,21.3-459.6,208.1-500.16,460.812-6.085,37.725-7.5,103.845-3.042,142.381,7.91,68.351,25.758,128.589,54.965,185.583,84.171,164.692,239.33,273.607,422.276,296.121,33.871,4.259,95.124,4.259,129.2,0,119.26-14.6,226.147-65.106,312.752-147.655C1203.778,190.5,1261.177,75.5,1277-52.075c3.651-28.192,4.057-93.1,1.014-120.679-14.6-130.618-69.365-242.981-162.461-333.44Q986.86-631.234,807.463-656.485C786.37-659.325,716.4-661.759,696.925-660.136ZM811.52-640.057c131.023,20.079,246.227,84.78,331.006,185.582,34.683,41.173,71.191,104.048,89.85,154.956a529.33,529.33,0,0,1-53.951,473.185c-68.757,104.454-174.63,183.149-292.47,217.426-85.591,24.947-179.295,28.192-264.48,9.127C465.911,365.537,336.1,264.937,264.1,123.773,234.287,65.36,216.236,3.9,209.137-62.418c-3.651-33.263-1.623-106.279,3.854-137.514,14.2-81.94,40.159-147.046,85.591-214.181,68.96-101.817,174.022-177.267,294.9-211.746,21.9-6.288,66.12-14.6,91.27-17.037C711.123-645.736,786.167-643.91,811.52-640.057Z" transform="translate(82.863 83.339)"/><path fill="#fff" d="M602.269-614.755c-4.868,4.868-5.679,10.344-4.868,39.145.406,22.108,1.217,26.975,4.259,30.018,3.042,3.245,8.316,3.651,37.928,4.259l34.48.608v6.085c0,5.071-.811,5.882-5.882,5.882-14.4,0-21.7,8.519-16.834,19.268,1.825,3.854,4.462,5.273,12.575,6.287,9.33,1.217,10.141,1.825,10.141,6.9s-.811,5.679-9.533,6.693c-10.141,1.014-14.806,5.071-14.806,12.575s4.665,11.561,14.806,12.575c8.721,1.014,9.533,1.623,9.533,6.693s-.811,5.679-9.533,6.693c-10.141,1.014-14.806,5.071-14.806,12.575s4.665,11.561,14.806,12.575l9.533,1.217v225.539l-71.8-71.8c-39.55-39.55-71.6-72.61-70.988-73.422,2.028-3.245,16.023-4.462,24.947-2.028a45.939,45.939,0,0,1,14.806,7.3c7.1,6.085,15.82,6.49,20.485,1.42,5.476-6.085,4.057-12.372-4.056-19.877-16.226-15.009-43.81-19.268-65.917-10.141l-11.561,4.665-4.665-4.868-4.462-4.868,32.654-32.857c21.3-21.3,33.263-34.885,34.277-38.536,1.217-5.476-2.434-9.735-66.323-73.625-55.168-54.965-68.757-67.743-73.219-67.743-7.1,0-11.764,4.868-11.764,12.778,0,5.679,6.9,13.183,60.238,66.729L537.163-445.6,509.782-418.22,482.6-390.839l-4.665-4.462-4.462-4.259,5.882-6.9c8.519-9.735,7.91-19.471-1.42-23.122-5.476-2.028-10.75,0-18.457,6.9l-4.665,4.259-4.868-5.071-5.071-4.868,4.259-8.721c6.085-12.169,7.3-33.263,2.84-46.852-11.764-35.494-52.937-53.748-86.4-38.333-23.73,10.952-37.319,32.249-37.319,58.413.2,11.561,1.217,17.848,4.868,25.961,6.085,13.386,22.919,29.207,35.9,33.668,13.589,4.665,36.1,4.259,47.258-.811,10.952-5.071,12.778-5.071,17.443,0,3.448,3.854,3.448,4.259-2.84,11.155-7.1,8.113-8.113,15.009-2.637,19.877s13.386,4.259,20.485-1.825c6.49-5.476,11.561-5.273,13.792.406.811,2.231-6.49,10.952-25.961,30.423l-27.178,27.178L348.538-378.67c-63.889-63.889-66.526-65.917-74.841-57.6-8.519,8.316-6.693,10.547,64.295,81.535,50.706,50.5,68.554,67.337,72.2,67.337,3.448,0,13.995-9.127,38.942-33.871,33.669-33.263,34.277-33.669,38.333-30.018,5.071,4.665,5.071,6.287-.2,18.254-8.721,19.674-4.665,47.055,9.533,63.686,8.113,9.33,16.023,10.952,21.7,4.665,4.462-4.868,4.259-10.952-.406-16.834-9.938-12.778-13.589-30.626-8.113-40.767,2.028-3.854,8.113,1.623,74.03,67.54,39.55,39.55,71.8,72.408,71.8,73.422,0,.811-76.87,1.217-170.776,1.014l-170.979-.608-1.014-74.639c-1.014-78.7-1.014-78.087-10.141-78.492-19.877-1.014-60.238.608-62.266,2.434-1.42,1.217-2.637,5.071-2.637,8.924,0,10.75,5.273,12.981,30.018,12.981h20.891l-.608,25.758-.608,25.961-22.108.608c-12.372.2-23.527,1.623-24.947,2.839-3.854,3.245-3.245,14.6,1.014,18.457,3.042,2.839,8.113,3.448,25.353,3.448h21.7V-179.9H266.6c-24.542,0-28.6,1.623-28.6,11.966s4.868,12.372,29,12.372h21.7v52.734H266.8c-24.136,0-28.8,2.028-28.8,12.575,0,9.533,5.273,11.764,29,11.764h21.7v52.734H266.8c-24.339,0-28.8,2.028-28.8,12.778C238-2.434,241.448-1.42,275.319-1.42c27.381,0,31.437-.406,34.277-3.651,3.042-3.448,3.448-11.764,3.448-77.072v-73.422H656.828l-86,86c-47.46,47.46-86.808,85.794-87.619,85.185-2.84-1.825-4.056-16.834-1.825-24.744a41.625,41.625,0,0,1,7.5-14.6c13.995-16.834-3.042-33.871-17.646-17.848C460.09-29.41,456.237-18.457,456.034.608c0,14.2.811,18.862,4.868,26.164l4.665,8.924L460.5,40.767l-5.273,5.071-7.3-6.287c-8.113-7.1-9.33-7.5-15.82-4.259-9.533,5.071-9.938,12.372-1.014,21.5l6.49,6.693-4.868,5.071-4.868,5.273L403.3,49.286c-20.079-20.079-25.353-24.339-30.423-24.339S360.91,30.829,327.85,64.092c-33.871,33.669-39.145,39.956-39.145,45.229,0,3.448,1.623,7.707,3.651,9.533,8.113,7.3,11.967,4.868,47.258-30.221l34.074-33.871,17.24,17.646c9.533,9.735,17.443,18.457,17.443,19.268s-1.825,3.245-4.056,5.273c-3.854,3.448-4.259,3.448-11.155-2.839-8.316-7.3-13.589-7.91-19.268-2.231-5.882,5.882-5.071,11.966,2.434,19.674l6.49,6.693-4.868,5.071-4.868,5.071-6.288-6.085c-6.9-6.693-15.009-7.91-20.079-2.84-4.868,4.665-4.056,13.589,1.825,19.065,2.84,2.637,5.071,5.679,5.071,6.693s-2.231,4.462-5.071,7.91c-6.49,7.5-6.693,16.429-.608,20.688,6.693,4.665,10.75,4.056,18.862-3.042l7.3-6.49,6.49,6.49c7.91,7.5,13.386,7.91,19.268,1.623,6.085-6.288,5.679-10.141-1.825-18.66-6.287-6.9-6.287-7.3-2.839-11.155,4.868-5.273,7.5-5.071,13.183,1.014,5.476,5.882,14.4,6.693,19.065,1.825,5.071-5.071,3.854-13.183-2.839-20.079l-6.085-6.288,4.868-4.665,4.868-4.462,17.443,16.631c9.533,9.33,17.443,17.848,17.443,19.065,0,1.014-14.6,16.631-32.452,34.48-28.4,28.4-32.452,33.263-32.452,38.942a12.99,12.99,0,0,0,12.778,12.778c2.231,0,19.471-15.212,41.376-37.117,34.885-34.277,43.2-44.012,43.2-50.3,0-1.42-11.155-13.792-24.744-27.381C446.5,92.284,446.3,91.878,449.949,87.822c4.868-5.273,7.5-5.071,13.183,1.014,8.316,8.924,22.31,5.071,22.31-6.085,0-2.839-2.637-8.113-6.085-11.764l-5.882-6.9,4.665-4.665,4.868-4.462,11.561,4.259c13.183,4.868,34.277,5.476,46.244,1.42,18.254-6.693,29.409-18.863,25.961-28.4-3.651-9.33-12.372-9.533-24.542-.811-7.1,5.273-11.155,6.693-21.094,7.3-6.9.2-13.792-.406-15.414-1.42-2.434-1.825,13.386-18.66,82.751-87.822L674.068-136.3v291.05H601.052c-70.379,0-73.219.2-77.073,4.056-3.651,3.651-4.056,6.693-4.056,32.452v28.4H511c-10.547,0-15.414,3.854-15.414,12.169,0,7.5,6.49,12.169,16.631,12.169,7.5,0,7.707.2,7.707,7.1,0,7.1,0,7.1-8.924,7.1-10.547,0-15.414,3.854-15.414,12.169,0,10.344,5.476,12.169,37.522,12.169s37.522-1.825,37.522-11.967c0-7.91-5.679-12.372-15.82-12.372-8.316,0-8.519-.2-8.519-7.1s.2-7.1,7.707-7.1c10.141,0,16.631-4.665,16.631-12.169,0-8.316-4.868-12.169-15.414-12.169H546.29V178.889l12.778.608,12.575.608.609,9.533c1.42,22.108,24.744,20.688,24.744-1.42v-9.127h77.073v26.367H640.6c-33.06,0-33.669,0-38.536,5.071-4.868,4.665-5.071,5.882-5.071,33.06,0,25.556.406,28.8,4.259,33.668,5.273,6.9,12.575,6.9,17.848,0,3.651-4.665,4.259-8.316,4.259-25.353V231.826h50.706v26.367h-8.721c-14.2,0-20.688,11.155-11.561,20.282,3.651,3.651,6.693,4.056,34.074,4.056,33.668,0,36.914-1.217,36.914-13.792,0-7.707-4.462-10.547-16.023-10.547h-8.316V231.826h52.734v22.108c0,20.688.406,22.513,4.462,25.353,6.085,4.259,10.952,4.056,15.82-.811,3.651-3.651,4.057-6.693,4.057-33.871,0-16.631-.811-31.032-1.623-32.249-3.651-5.679-11.358-6.9-42.8-6.9H700.435V179.092h77.073V187.2c0,8.924,6.9,18.254,13.183,18.254,6.49,0,13.183-9.33,13.183-18.254v-8.316l12.778.608,12.575.608v38.536l-9.533.608c-22.31,1.42-20.688,24.744,1.623,24.744,9.127,0,9.127,0,8.519,6.49s-1.014,6.693-10.141,7.3c-14.4,1.014-20.688,11.764-11.764,20.688,3.651,3.651,6.693,4.056,34.48,4.056s30.829-.406,34.48-4.056c4.868-4.868,5.071-9.735.811-15.82-2.434-3.651-5.071-4.462-13.183-4.462H854.58v-7.1c0-6.9.2-7.1,8.721-7.1,9.533-.2,14.4-2.84,16.429-9.736,2.637-8.113-3.245-14.2-14.4-15.009l-9.735-.608-.608-28.4c-.406-22.716-1.217-29-3.854-31.843-3.042-3.448-8.721-3.651-77.072-3.651H700.435V9.735c0-79.709.609-145.018,1.623-145.018,1.825,0,180.917,179.092,180.917,181.12,0,.811-2.637,4.259-6.085,7.91-6.9,7.1-7.5,10.952-2.839,17.443,4.462,6.288,14.806,6.085,21.093-.608,5.679-5.882,7.5-6.288,12.575-1.825,3.448,3.245,3.245,3.651-2.434,10.344-6.9,7.91-7.91,16.631-2.434,21.5,5.679,5.071,11.561,4.259,19.674-3.042l7.3-6.288,4.259,4.259,4.259,4.259-6.287,7.3c-7.3,8.113-8.316,15.009-2.839,19.877,5.679,5.071,13.589,4.259,21.3-2.637l6.9-5.882,4.259,4.462,4.462,4.259-24.339,24.744c-20.079,20.282-24.339,25.556-24.339,30.423,0,5.071,3.854,9.938,22.108,27.787,23.122,22.919,27.381,24.947,34.683,17.646,6.9-6.9,5.071-11.764-11.561-28.8l-15.617-16.023,18.66-18.66,18.66-18.66,15.82,15.82c16.834,16.631,21.7,18.66,28.8,11.561,6.9-6.9,5.071-11.764-11.561-28.8l-15.617-16.023,18.66-18.66,18.66-18.66,15.82,15.82c9.33,9.127,17.443,15.617,19.877,15.617,5.882,0,10.547-4.056,12.169-10.75,1.217-5.071-.811-7.707-20.688-27.787-18.051-18.457-22.919-22.31-27.989-22.31-4.868,0-10.141,4.259-30.423,24.339l-24.744,24.339-4.259-4.462-4.462-4.259,5.882-6.9c7.5-8.316,8.113-17.24,1.623-21.7-6.49-4.665-9.938-4.056-18.66,3.042l-7.707,6.49-4.056-4.259-4.259-4.259,6.287-7.3c7.3-8.113,7.91-12.169,3.245-18.863-4.462-6.49-13.386-5.882-21.7,1.623l-6.9,5.882-4.462-4.462-4.259-4.665,6.085-5.882c8.316-7.91,7.91-18.862-.406-22.919-6.085-2.839-10.75-1.42-18.051,5.882-2.028,2.028-4.462,3.854-5.476,3.854-.811,0-42.593-41.173-92.69-91.27l-91.27-91.27h86.808c64.092,0,86.605.608,86.605,2.434,0,8.316-20.485,23.73-31.843,23.933-12.981,0-20.079,9.938-13.995,19.268,2.839,4.259,4.868,5.071,12.98,5.071,15.415,0,28.4-5.679,41.173-18.457,8.113-7.707,12.575-14.4,15.212-21.9,3.651-10.141,4.056-10.547,10.952-9.938l7.1.609,1.014,22.919c1.014,24.542,2.028,26.773,12.575,26.773,9.33,0,11.764-6.287,11.764-30.018v-20.891l7.3.608c6.9.609,7.707,1.42,11.358,11.561,7.707,20.688,28.8,36.508,51.314,38.333,14.2,1.014,19.268-2.028,19.268-11.764,0-6.9-6.287-12.169-14.806-12.169-8.721,0-18.051-4.868-25.353-12.981-11.358-12.981-10.344-13.386,23.933-13.386h30.423v34.48c0,45.229-2.434,42.593,38.536,42.593,27.787,0,30.829-.406,34.48-4.056,4.868-4.868,5.071-9.938,1.217-15.414-2.434-3.245-6.085-4.056-25.961-4.868l-22.919-1.014v-50.706l22.919-1.014c19.877-.811,23.527-1.623,25.961-4.868,3.854-5.273,3.651-9.938-.609-15.212-3.245-3.651-6.085-4.259-25.961-4.665l-22.31-.608v-50.706l22.919-1.014c19.877-.811,23.527-1.623,25.961-4.868,3.651-5.273,3.651-9.33-.406-15.009-3.042-4.259-4.259-4.462-35.291-4.462-41.173,0-38.536-3.042-38.536,43V-179.9h-30.423c-33.06,0-34.277-.406-27.178-11.155,4.665-7.1,15.009-12.981,27.178-15.212,13.995-2.637,16.631-5.071,15.82-13.995-.811-10.141-7.91-13.589-22.31-10.344-25.961,5.476-43.2,21.5-51.111,47.055-.811,2.637-3.245,3.651-8.113,3.651h-7.1l-.609-22.513c-.609-21.9-.811-22.919-5.882-26.773-4.868-3.448-6.085-3.651-11.155-1.014-5.882,2.637-5.882,2.637-6.9,25.961l-1.014,23.325-6.49.608c-6.287.609-6.9,0-12.372-12.169-9.938-21.5-28.8-35.9-51.111-39.145-7.707-1.014-10.141-.608-14.806,3.042-3.042,2.434-5.476,6.085-5.476,8.316,0,6.287,8.924,13.995,16.429,13.995,8.721,0,18.862,5.273,26.164,13.386C896.767-179.3,900.215-179.9,805.9-179.9c-46.852,0-85.185-.609-85.185-1.623,0-3.042,169.965-171.182,171.993-169.965,1.217.608,3.651,5.882,5.476,11.561,7.3,21.7,1.014,49.691-15.212,68.148-9.938,11.358-6.693,23.527,6.085,23.527,8.519,0,17.24-9.533,27.381-30.018,13.792-27.99,13.386-55.776-1.623-85.794l-4.259-8.721,5.071-5.071,5.071-5.071,10.141,4.665c14.2,6.49,38.536,6.49,52.125-.2,20.282-9.938,27.99-23.933,17.24-31.437-6.287-4.462-7.3-4.259-19.471,3.651-12.981,8.316-21.9,10.344-33.06,7.3l-8.519-2.434L961.67-423.9l22.716-22.716,24.947,24.947c17.848,17.848,26.164,24.744,29.612,24.744s10.952-6.085,25.759-20.891c22.716-22.513,26.164-28.8,19.268-35.7-7.707-7.707-13.386-5.679-30.423,10.952l-15.617,15.009L1019.88-445.6l-18.051-18.051,15.617-16.226c16.631-16.834,18.457-21.7,11.561-28.6-7.3-7.3-12.778-5.273-29.409,11.358L983.981-481.5l-18.457-18.457-18.457-18.457,15.617-16.023c16.631-17.037,18.457-21.9,11.561-28.8-7.707-7.707-12.169-5.273-35.088,17.443-16.631,16.631-21.7,22.919-21.7,26.975s5.273,10.75,23.325,28.6c12.778,12.778,23.325,24.339,23.325,25.758,0,2.434-39.956,43.2-42.593,43.2-2.028,0-4.056-7.707-4.056-16.226,0-8.113,5.882-21.9,10.75-26.164,5.476-4.462,4.462-15.617-1.623-19.674-4.056-2.637-6.085-2.839-10.75-1.014-6.287,2.637-17.037,17.848-20.688,29.206s-1.825,35.088,3.245,45.432l4.259,8.519-4.868,5.071c-2.637,2.839-5.071,5.273-5.476,5.273a104.072,104.072,0,0,1-9.533-4.868c-19.268-10.952-43.81-13.995-65.714-8.316-23.73,6.288-49.691,24.339-49.691,34.683,0,5.882,6.49,12.981,11.966,12.981,2.028,0,8.316-3.651,13.589-8.113C813-381.1,842.614-386.377,863.3-377.047c5.274,2.231,9.533,4.462,9.533,4.868,0,.608-163.678,164.489-171.588,171.791-.406.406-.811-49.894-.811-111.958V-425.319h7.91c9.938,0,17.037-5.476,17.037-12.981,0-7.91-4.665-11.561-15.617-12.778-8.519-1.014-9.33-1.623-9.33-6.693s.811-5.679,9.33-6.693c10.952-1.217,15.617-4.868,15.617-12.778,0-7.5-7.1-12.981-17.037-12.981-7.3,0-7.91-.406-7.91-5.882,0-5.273.609-5.882,9.127-6.693,11.561-1.42,15.212-4.462,15.212-12.981,0-8.316-5.882-12.981-16.631-12.981-7.1,0-7.707-.406-7.707-5.882v-6.085l34.277-.608c45.229-.811,42.8,1.42,42.8-37.928,0-33.263-1.623-38.739-11.967-38.739s-12.372,4.868-12.372,29v21.7H700.435v-21.3c0-18.66-.609-21.9-4.057-25.353-4.056-4.056-11.155-5.273-15.617-2.434s-6.693,12.778-6.693,31.032v18.051h-50.3l-.811-22.513c-.609-19.471-1.217-22.919-4.462-25.353C613.221-618.811,606.123-618.811,602.269-614.755Zm-195.318,115.2c8.316,3.448,18.457,15.009,21.7,24.542,2.637,7.707,1.623,22.513-1.42,25.556-1.014,1.014-12.981-9.33-26.975-23.527-20.282-20.485-24.744-25.758-22.31-27.381C382.41-503.2,399.447-502.8,406.951-499.552Zm-22.31,45.432c11.967,12.169,21.7,23.122,21.7,24.136,0,3.245-5.071,4.665-15.82,4.665-12.169,0-23.73-6.49-31.64-17.646-4.868-7.1-5.882-10.547-5.882-20.485,0-13.995,1.42-17.443,6.287-14.806C361.113-477.038,372.471-466.289,384.641-454.12Z" transform="translate(131.073 127.2)"/><path fill="#fff" d="M265.327-634.367c-18.457,5.273-34.683,9.938-36.1,10.547-2.231.811,72.2,89.445,76.261,90.459.811.2,4.056-1.623,7.3-4.462l5.882-4.665-11.967-14.2c-6.49-7.707-20.485-23.73-30.829-35.7l-18.862-21.5,5.476-2.028c15.212-5.882,34.277-9.735,36.508-7.5,1.42,1.42,12.778,14.2,25.15,28.8,12.575,14.4,23.527,26.57,24.136,26.975.811.2,3.854-2.028,6.9-5.273l5.476-5.679-27.989-32.452c-15.415-17.645-29.206-32.452-30.829-32.654S283.784-639.64,265.327-634.367Z" transform="translate(122 100.771)"/><path fill="#fff" d="M699.711-600.519c-20.282,19.065-40.362,37.928-44.215,41.579l-6.9,6.693,4.868,5.273c2.637,2.839,6.085,4.868,7.5,4.665,1.217-.406,8.721-6.49,16.226-13.792,7.707-7.3,16.429-15.415,19.268-18.051l5.476-4.868,26.57,9.735c14.6,5.273,26.975,9.127,27.584,8.519,1.014-1.014-16.834-72.408-18.457-74.03C737.233-635.2,720.2-619.787,699.711-600.519Zm31.843,5.071c.608,4.056.811,7.707.2,8.316-1.217,1.42-15.415-3.854-15.415-5.679s9.938-9.938,12.169-9.938C729.323-602.75,730.743-599.5,731.554-595.449Z" transform="translate(553.262 109.922)"/><path fill="#fff" d="M206.432-590.538c-.608,2.637-1.623,12.575-2.231,22.311-.811,9.938-1.825,17.848-2.231,17.848-.608,0-4.462-2.231-8.519-5.071s-7.91-5.071-8.519-5.071-2.839,2.839-4.868,6.49c-3.854,6.085-3.854,6.287,0,9.127,17.037,12.778,94.11,65.512,95.732,65.512,2.231,0,8.519-8.924,8.519-11.967,0-1.014-7.3-6.693-16.429-12.778l-16.226-10.75,1.217-13.183c.608-7.3,1.623-19.674,2.231-27.584l1.42-14.4-7.707-1.42c-4.056-.811-7.91-1.217-8.316-.609-.406.406-1.825,10.141-3.042,21.9-1.217,11.561-2.637,21.5-3.042,21.9-1.014,1.217-17.037-9.735-17.037-11.561,0-.811,1.42-12.778,3.042-26.57s2.434-25.961,1.825-26.773c-.608-1.014-4.259-1.825-7.91-1.825C208.663-595,207.041-594.189,206.432-590.538Z" transform="translate(68.531 150.849)"/><path fill="#fff" d="M746.314-541.326c-34.277,18.66-51.111,28.8-51.314,31.032,0,1.826,1.623,5.476,3.651,7.91l3.651,4.665,26.367-14.4c19.268-10.75,26.367-13.792,26.772-11.561.609,2.637-4.259,30.423-6.9,39.55-.406,1.825-7.3,6.693-15.212,10.952-7.707,4.259-13.995,8.316-13.589,8.924.406.811,2.028,3.854,3.448,6.9,1.623,3.245,3.448,5.679,4.259,5.679,1.42,0,101.208-54.154,103.237-55.979.608-.608-.608-4.056-2.434-8.113l-3.448-7.3-15.82,8.519c-8.519,4.868-21.5,11.764-28.6,15.82l-12.778,7.1,1.42-8.924c5.679-35.7,6.49-37.319,26.975-48.677,11.155-6.287,11.358-7.1,4.057-16.429C797.628-568.707,792.76-566.476,746.314-541.326Z" transform="translate(600.971 179.927)"/><path fill="#fff" d="M167.961-499.715c-14.4,7.1-25.961,13.386-25.961,13.995,0,2.434,26.57,53.748,27.584,53.748.811,0,9.938-4.056,20.485-8.924,17.037-8.316,19.065-8.721,20.891-5.679,1.217,1.825,6.085,11.966,11.155,22.108,9.533,20.079,11.155,21.094,21.3,15.82,7.1-3.651,7.5-5.679,2.231-12.778-4.665-6.693-18.457-33.668-18.457-36.305,0-1.014,10.141-6.693,22.31-12.778,12.372-6.085,22.31-11.764,22.31-12.778,0-2.231-5.882-13.589-7.1-13.589-.406,0-10.547,4.462-22.513,10.141-11.967,5.476-22.513,10.141-23.325,10.141-1.014,0-5.882-8.316-10.952-18.254-5.071-10.141-10.344-18.254-11.764-18.051C194.937-512.9,182.159-507.016,167.961-499.715ZM193.72-479.23c2.231,5.273,4.259,10.344,4.665,11.155.608,1.42-19.877,12.778-20.688,11.358-2.231-3.042-11.358-19.877-11.358-20.688,0-1.42,18.457-11.155,21.3-11.155C188.852-488.762,191.489-484.5,193.72-479.23Z" transform="translate(32.363 235.265)"/><path fill="#fff" d="M800.322-483.431c-2.231,3.651-6.693,12.575-9.938,19.674L784.5-450.574l-28.8,7.1-28.8,6.9,1.42,8.316c.608,4.462,1.623,8.518,2.028,8.924s9.127-1.217,19.471-3.651,20.079-4.259,21.5-4.259c1.623,0,.2,4.462-3.854,12.575L761.177-402.1l4.462,3.651c8.113,6.693,10.75,4.868,20.282-14.806,5.071-10.344,10.953-19.674,13.183-21.094s10.547-4.056,18.254-5.882c32.046-7.707,30.018-6.693,28.4-15.009-.811-4.056-1.825-8.113-2.231-8.721-.406-.811-8.113.406-17.037,2.637-8.924,2.434-16.834,3.651-17.443,3.245-.609-.608,1.623-6.287,4.665-12.778l5.679-11.561-4.868-3.854C807.826-491.747,805.189-491.138,800.322-483.431Z" transform="translate(633.771 258.937)"/><path fill="#fff" d="M132.091-429.135c0,.811,9.127,11.358,20.282,23.527l20.282,21.7-23.73,22.513c-13.183,12.372-23.325,22.513-22.919,22.716,4.665.811,116.826,5.476,117.434,4.868.406-.406-5.476-7.5-13.183-15.617s-17.443-18.457-21.7-23.122l-7.707-8.316,23.122-21.094c12.778-11.561,22.919-21.7,22.513-22.31s-17.848-1.825-38.739-2.637c-20.891-.609-46.649-1.825-56.79-2.434C140.609-430.149,132.091-429.947,132.091-429.135Zm64.7,15.009,13.183,1.217-10.141,8.316c-5.476,4.462-10.952,8.924-12.169,9.533-1.42.811-6.49-3.448-11.967-9.735l-9.533-11.155,8.924.2C179.957-415.546,189.692-414.938,196.791-414.127Zm-10.344,64.7c-10.141.2-19.268-.2-20.282-1.217s2.84-6.085,8.721-11.561l10.547-9.938,9.735,11.155,9.533,10.952Z" transform="translate(15.906 320.656)"/><path fill="#fff" d="M770.074-401.58,736-400.972v15.82l57.4-1.014c31.438-.406,58.413-1.217,59.833-1.623,1.217-.609,2.434-4.056,2.434-8.113V-403l-25.758.406C815.506-402.392,788.734-401.783,770.074-401.58Z" transform="translate(643.128 348.268)"/><path fill="#fff" d="M769.62-339.439c-25.556,16.226-36.914,24.542-38.131,27.787-.608,1.623.406,5.273,2.231,8.113,4.056,6.085,3.245,6.287,28.8-10.344,9.33-5.882,18.051-11.358,19.674-11.967,1.825-.608,5.273,3.042,10.141,10.75,3.854,6.49,8.113,12.981,8.924,14.4,2.84,4.259,15.415-2.637,13.995-7.707-1.217-4.665-24.339-42.39-25.961-42.593C788.686-351,779.761-345.727,769.62-339.439Z" transform="translate(638.309 401.736)"/><path fill="#fff" d="M160.566-308.2c-15.212,26.164-16.429,29-13.386,31.235,2.028,1.42,14.806,9.127,28.8,17.24,20.282,11.561,25.758,13.995,27.178,11.764,8.924-13.792,32.654-54.762,32.046-55.37C233.177-304.954,179.023-337,178.212-337,177.806-337,169.9-324.019,160.566-308.2Zm37.522,2.84c7.1,4.056,12.981,7.707,12.981,8.316,0,2.84-15.212,26.975-16.834,26.975-2.84,0-25.758-12.981-25.758-14.4,0-1.623,15.009-28.192,15.82-28.192C184.7-312.661,190.99-309.416,198.088-305.36Z" transform="translate(36.31 416.131)"/><path fill="#fff" d="M754.679-328.755c-3.245,1.623-5.679,4.056-5.679,5.476,0,1.825,22.919,38.131,27.584,43.81,1.014,1.217,59.63-39.348,59.63-41.376,0-2.84-5.882-11.155-7.91-11.155-.811,0-10.547,5.679-21.7,12.778-10.953,7.1-21.094,13.386-22.31,14.2-1.42.811-6.085-4.462-11.764-12.778-5.071-7.91-9.938-14.2-10.953-14.2A54.07,54.07,0,0,0,754.679-328.755Z" transform="translate(656.495 421.272)"/><path fill="#fff" d="M728-257.292c-16.023,7.91-29,15.009-29,15.617s17.443,10.547,38.942,22.31c21.3,11.764,40.159,22.31,41.781,23.527,2.231,1.623,0,3.651-11.561,9.736-8.113,4.259-14.4,8.924-14.4,10.547,0,2.637,3.042,10.141,5.071,12.575,1.014,1.217,63.889-28.6,63.889-30.221,0-.811-18.051-11.358-39.956-23.325-22.108-11.966-41.376-22.513-42.593-23.527-1.825-1.42,1.623-4.259,12.372-9.533l15.009-7.3-3.042-7.707c-1.623-4.056-4.056-7.5-5.476-7.3C757.818-271.9,743.824-265.405,728-257.292Z" transform="translate(605.084 483.064)"/><path fill="#fff" d="M236.993-224.992c-20.485,12.169-38.131,22.31-38.942,22.31-1.014,0-1.825-7.5-2.231-16.834l-.608-16.631-7.5-.608L180-237.364v32.452c0,18.051.608,32.654,1.217,32.654s24.339-13.792,52.531-30.829l51.517-30.829-3.854-6.287c-2.028-3.245-4.665-6.288-5.476-6.49C275.124-247.1,257.478-237.364,236.993-224.992Z" transform="translate(71.436 508.973)"/><path fill="#fff" d="M251.77-171.61c-22.513,23.325-40.97,43.2-40.97,44.012.2,1.014,10.75,3.854,23.73,6.085,12.981,2.434,24.339,5.071,25.15,6.085,1.014,1.014,3.651,12.778,6.085,25.961,2.231,13.183,4.665,24.542,5.273,25.353.608.608,20.891-18.862,45.229-43l44.012-44.012-6.288-6.085-6.085-6.288-19.471,19.268-19.268,19.471-15.82-3.042c-8.924-1.825-16.631-4.259-17.646-5.476-.811-1.42-2.434-8.721-3.854-16.429L269.618-163.7l9.735-10.344c5.476-5.679,13.792-14.2,18.66-19.268,4.665-4.868,8.519-9.533,8.519-10.344,0-2.028-9.735-10.344-11.967-10.344C293.754-214,274.486-194.935,251.77-171.61Zm4.868,31.437c1.217,5.273,1.014,5.679-3.245,4.462a51.115,51.115,0,0,0-9.533-1.217c-5.071,0-4.868,0,1.825-7.1C252.987-151.531,254-151.125,256.638-140.173Zm35.088,29.206c1.825,1.217.811,3.448-4.259,8.316l-6.9,6.693-.811-8.316c-.608-7.707-.406-8.316,4.462-8.316C287.061-112.589,290.509-111.778,291.726-110.966Z" transform="translate(103.105 542.603)"/><path fill="#fff" d="M682.339-192.718,672.4-172.638l-11.155.608c-10.953.608-11.358.811-11.967,6.693-.811,9.938,1.014,10.952,19.065,9.735l16.226-1.217,6.287-13.792c3.448-7.707,7.1-13.995,8.113-13.995.811,0,12.981,10.952,26.975,24.136l25.15,23.933-15.009,7.91-15.212,7.91-.609,12.169c-1.014,18.051.406,21.3,8.721,21.3h6.9l1.42-11.764,1.217-11.561,19.065-10.141c10.547-5.679,19.065-10.75,19.065-11.358,0-1.217-82.346-80.926-83.563-80.926C692.683-213,687.815-203.873,682.339-192.718Z" transform="translate(553.8 543.631)"/><path fill="#fff" d="M312.877-118.279c-14.4,24.947-27.99,48.272-30.221,52.125l-4.056,6.9,12.169-1.217c6.49-.811,16.631-2.028,22.31-2.637l10.547-1.42,4.259,11.967c2.434,6.693,5.882,16.023,7.5,20.688,1.825,4.868,4.056,8.113,4.868,7.1,1.825-1.825,50.1-84.78,55.573-95.529,3.854-7.5,3.245-9.33-4.665-13.386l-5.679-3.042-21.094,36.711L343.3-63.314l-4.259-10.141L334.579-83.6l-10.344,1.014c-5.882.406-10.344,0-10.344-1.014s8.721-17.037,19.268-35.291,19.268-34.277,19.268-35.494-2.434-3.448-5.476-5.071c-3.245-1.42-6.287-3.042-6.9-3.245C339.447-163.1,327.075-143.023,312.877-118.279Z" transform="translate(172.819 595.347)"/><path fill="#fff" d="M602.679-153.755c-3.245,1.623-5.679,3.448-5.679,4.259,0,.608,6.9,12.981,15.415,27.381l15.212,25.961-6.49,26.57c-3.448,14.4-6.085,26.773-5.679,26.975.406.406,3.651,1.42,7.1,2.028l6.49,1.42,5.476-16.226c3.042-9.127,6.085-16.429,6.693-16.429.811,0,5.071,6.49,9.33,14.2,4.462,7.91,8.519,14.2,9.33,14.2s8.113-4.462,11.967-7.3c.406-.406-3.042-7.1-7.707-15.009-7.3-12.981-9.736-18.254-7.707-18.254.406,0,8.113,2.231,17.037,4.868L690.1-74.451l2.231-6.085c1.014-3.448,1.42-6.9.608-7.707-1.014-.608-13.183-5.071-27.178-9.735L640.2-106.5l-15.009-25.15C617.08-145.642,609.778-157,609.169-157,608.561-156.8,605.721-155.377,602.679-153.755Z" transform="translate(500.205 601.211)"/><path fill="#fff" d="M529.377-91.058c-6.9,21.5-12.372,39.348-11.966,39.55.2.2,12.169-2.637,26.57-6.49s26.57-6.693,26.975-6.287-2.637,11.155-6.49,23.73c-4.057,12.575-7.3,23.933-7.3,25.15,0,2.84,14.6,7.707,16.429,5.476s22.919-77.478,21.9-78.492c-.406-.406-12.575,2.231-26.773,6.085-14.2,3.651-25.758,6.287-25.758,5.476s3.245-11.358,7.1-23.527,7.1-22.513,7.1-22.919c0-.811-13.183-6.693-14.6-6.693C542.155-130,536.273-112.354,529.377-91.058Z" transform="translate(418.348 628.973)"/><path fill="#fff" d="M409.317-113c-20.485,5.476-37.928,10.344-38.536,11.155-.609.608,4.462,6.9,11.358,13.792s12.575,13.792,12.575,15.009c0,2.434-5.273,4.259-26.164,9.33L357.8-61.074l28.6,28.192c26.975,26.57,32.654,31.64,32.654,28.4,0-.608,7.3-27.178,16.226-59.021,8.924-31.64,16.226-58.007,16.226-58.616C451.5-123.949,447.042-122.935,409.317-113Zm14.6,19.674a108.812,108.812,0,0,1-3.245,10.547l-1.825,4.868-6.9-6.693c-3.854-3.854-7.1-7.5-7.1-8.519,0-1.623,10.75-5.273,16.834-5.476C424.529-98.8,424.934-97.785,423.92-93.323ZM412.359-53.367a97.8,97.8,0,0,0-2.637,10.141c-.608,4.056-2.028,7.3-2.839,7.3-2.231,0-14.4-14.6-13.183-15.82,1.014-1.014,12.778-3.854,17.037-4.259C412.156-56.207,412.968-54.99,412.359-53.367Z" transform="translate(254.254 636.309)"/><path fill="#fff" d="M471.508-99.354c0,9.938-.608,29.612-1.42,43.81l-1.217,25.961-7.3-6.693c-15.82-14.806-15.82-14.806-21.5-10.952C437.231-45.4,435-42.767,435-41.347c0,3.042,40.767,44.012,43.607,44.012,1.217-.2,11.561-9.127,23.122-20.079l21.3-19.877-3.448-5.476c-2.028-2.84-4.665-5.273-5.882-5.273s-7.3,4.259-13.589,9.33l-11.358,9.33-.608-43.81L487.734-117H471.508Z" transform="translate(333.633 642.34)"/></g></svg>